<?xml version='1.0' encoding='UTF-8' standalone='no'?>
<svg xmlns:svg="http://www.w3.org/2000/svg" height="210mm" xmlns:freecad="https://www.freecad.org/wiki/index.php?title=Svg_Namespace" width="297mm" xmlns="http://www.w3.org/2000/svg" xmlns:cc="http://creativecommons.org/ns#" xmlns:dc="http://purl.org/dc/elements/1.1/" xmlns:rdf="http://www.w3.org/1999/02/22-rdf-syntax-ns#" xmlns:xlink="http://www.w3.org/1999/xlink" xmlns:sodipodi="http://sodipodi.sourceforge.net/DTD/sodipodi-0.dtd" baseProfile="tiny" viewBox="0 0 2970 2100" version="1.2" xmlns:inkscape="http://www.inkscape.org/namespaces/inkscape">
 <title>FreeCAD SVG Export</title>
 <desc>Drawing page: Page exported from FreeCAD document: Doc_00006919_vec</desc>
 <defs/>
 <g inkscape:groupmode="layer" id="Page" inkscape:label="TechDraw">
  <g stroke-width="1" id="DrawingContent" fill-rule="evenodd" stroke="black" stroke-linejoin="bevel" stroke-linecap="square" fill="none">
   <g stroke-width="7" font-weight="400" font-family="MS Shell Dlg 2" transform="matrix(1,0,0,1,1485,1050)" stroke-opacity="1" font-style="normal" stroke="#000000" stroke-linejoin="bevel" stroke-linecap="round" font-size="27.7813" fill="none">
    <path fill-rule="evenodd" vector-effect="none" d="M-0.355263,3.75 L0.355263,3.75"/>
   </g>
   <g stroke-width="7" font-weight="400" font-family="MS Shell Dlg 2" transform="matrix(1,0,0,1,1485,1050)" stroke-opacity="1" font-style="normal" stroke="#000000" stroke-linejoin="bevel" stroke-linecap="round" font-size="27.7813" fill="none">
    <path fill-rule="evenodd" vector-effect="none" d="M0.355263,3.75 L0.355263,-3.75"/>
   </g>
   <g stroke-width="7" font-weight="400" font-family="MS Shell Dlg 2" transform="matrix(1,0,0,1,1485,1050)" stroke-opacity="1" font-style="normal" stroke="#000000" stroke-linejoin="bevel" stroke-linecap="round" font-size="27.7813" fill="none">
    <path fill-rule="evenodd" vector-effect="none" d="M-0.355263,-3.75 L0.355263,-3.75"/>
   </g>
   <g stroke-width="7" font-weight="400" font-family="MS Shell Dlg 2" transform="matrix(1,0,0,1,1485,1050)" stroke-opacity="1" font-style="normal" stroke="#000000" stroke-linejoin="bevel" stroke-linecap="round" font-size="27.7813" fill="none">
    <path fill-rule="evenodd" vector-effect="none" d="M-0.355263,-3.75 L-0.355263,3.75"/>
   </g>
   <g stroke-width="7" font-weight="400" font-family="MS Shell Dlg 2" transform="matrix(1,0,0,1,1485,1050)" stroke-opacity="1" font-style="normal" stroke="#000000" stroke-linejoin="bevel" stroke-linecap="round" font-size="27.7813" fill="none">
    <path fill-rule="evenodd" vector-effect="none" d="M0.355263,0 C0.355263,0.196206 0.196206,0.355263 -2.9976e-14,0.355263 C-0.196206,0.355263 -0.355263,0.196206 -0.355263,0 C-0.355263,-0.196206 -0.196206,-0.355263 -2.9976e-14,-0.355263 C0.196206,-0.355263 0.355263,-0.196206 0.355263,0 "/>
   </g>
   <g stroke-width="7" font-weight="400" font-family="MS Shell Dlg 2" transform="matrix(1,0,0,1,1485,1050)" stroke-opacity="1" font-style="normal" stroke="#000000" stroke-linejoin="bevel" stroke-linecap="round" font-size="27.7813" fill="none">
    <path fill-rule="evenodd" vector-effect="none" d="M0,3.75 L0.355263,3.75"/>
   </g>
   <g stroke-width="7" font-weight="400" font-family="MS Shell Dlg 2" transform="matrix(1,0,0,1,1485,1050)" stroke-opacity="1" font-style="normal" stroke="#000000" stroke-linejoin="bevel" stroke-linecap="round" font-size="27.7813" fill="none">
    <path fill-rule="evenodd" vector-effect="none" d="M-0.355263,3.75 L-8.70144e-17,3.75"/>
   </g>
   <g stroke-width="7" font-weight="400" font-family="MS Shell Dlg 2" transform="matrix(1,0,0,1,1485,1050)" stroke-opacity="1" font-style="normal" stroke="#000000" stroke-linejoin="bevel" stroke-linecap="round" font-size="27.7813" fill="none">
    <path fill-rule="evenodd" vector-effect="none" d="M0,-3.75 L0.355263,-3.75"/>
   </g>
   <g stroke-width="7" font-weight="400" font-family="MS Shell Dlg 2" transform="matrix(1,0,0,1,1485,1050)" stroke-opacity="1" font-style="normal" stroke="#000000" stroke-linejoin="bevel" stroke-linecap="round" font-size="27.7813" fill="none">
    <path fill-rule="evenodd" vector-effect="none" d="M-0.355263,-3.75 L-8.70144e-17,-3.75"/>
   </g>
   <g stroke-width="7" font-weight="400" font-family="MS Shell Dlg 2" transform="matrix(1,0,0,1,1485,1050)" stroke-opacity="1" font-style="normal" stroke="#000000" stroke-linejoin="bevel" stroke-linecap="round" font-size="27.7813" fill="none">
    <path fill-rule="evenodd" vector-effect="none" d="M-0.355263,-3.75 L-0.355263,3.75"/>
   </g>
   <g stroke-width="7" font-weight="400" font-family="MS Shell Dlg 2" transform="matrix(1,0,0,1,1485,1050)" stroke-opacity="1" font-style="normal" stroke="#000000" stroke-linejoin="bevel" stroke-linecap="round" font-size="27.7813" fill="none">
    <path fill-rule="evenodd" vector-effect="none" d="M0.355263,-3.75 L0.355263,3.75"/>
   </g>
  </g>
 </g>
</svg>
