<?xml version='1.0' encoding='UTF-8' standalone='no'?>
<svg xmlns:svg="http://www.w3.org/2000/svg" height="210mm" xmlns:freecad="https://www.freecad.org/wiki/index.php?title=Svg_Namespace" width="297mm" xmlns="http://www.w3.org/2000/svg" xmlns:cc="http://creativecommons.org/ns#" xmlns:dc="http://purl.org/dc/elements/1.1/" xmlns:rdf="http://www.w3.org/1999/02/22-rdf-syntax-ns#" xmlns:xlink="http://www.w3.org/1999/xlink" xmlns:sodipodi="http://sodipodi.sourceforge.net/DTD/sodipodi-0.dtd" baseProfile="tiny" viewBox="0 0 2970 2100" version="1.2" xmlns:inkscape="http://www.inkscape.org/namespaces/inkscape">
 <title>FreeCAD SVG Export</title>
 <desc>Drawing page: Page exported from FreeCAD document: Doc_00017386_vec</desc>
 <defs/>
 <g inkscape:groupmode="layer" id="Page" inkscape:label="TechDraw">
  <g stroke-width="1" id="DrawingContent" fill-rule="evenodd" stroke="black" stroke-linejoin="bevel" stroke-linecap="square" fill="none">
   <g stroke-width="7" font-weight="400" font-family="MS Shell Dlg 2" transform="matrix(1,0,0,1,1485,1050)" stroke-opacity="1" font-style="normal" stroke="#000000" stroke-linejoin="bevel" stroke-linecap="round" font-size="27.7813" fill="none">
    <path fill-rule="evenodd" vector-effect="none" d="M1.06579,0 C1.06579,0.588619 0.588619,1.06579 0,1.06579 C-0.588619,1.06579 -1.06579,0.588619 -1.06579,0 C-1.06579,-0.588619 -0.588619,-1.06579 0,-1.06579 C0.588619,-1.06579 1.06579,-0.588619 1.06579,0 "/>
   </g>
   <g stroke-width="7" font-weight="400" font-family="MS Shell Dlg 2" transform="matrix(1,0,0,1,1485,1050)" stroke-opacity="1" font-style="normal" stroke="#000000" stroke-linejoin="bevel" stroke-linecap="round" font-size="27.7813" fill="none">
    <path fill-rule="evenodd" vector-effect="none" d="M1.06579,-1.05469 L-1.06579,-1.05469"/>
   </g>
   <g stroke-width="7" font-weight="400" font-family="MS Shell Dlg 2" transform="matrix(1,0,0,1,1485,1050)" stroke-opacity="1" font-style="normal" stroke="#000000" stroke-linejoin="bevel" stroke-linecap="round" font-size="27.7813" fill="none">
    <path fill-rule="evenodd" vector-effect="none" d="M1.06579,1.05469 L-1.06579,1.05469"/>
   </g>
   <g stroke-width="7" font-weight="400" font-family="MS Shell Dlg 2" transform="matrix(1,0,0,1,1485,1050)" stroke-opacity="1" font-style="normal" stroke="#000000" stroke-linejoin="bevel" stroke-linecap="round" font-size="27.7813" fill="none">
    <path fill-rule="evenodd" vector-effect="none" d="M1.06579,1.05469 L1.06579,-1.05469"/>
   </g>
   <g stroke-width="7" font-weight="400" font-family="MS Shell Dlg 2" transform="matrix(1,0,0,1,1485,1050)" stroke-opacity="1" font-style="normal" stroke="#000000" stroke-linejoin="bevel" stroke-linecap="round" font-size="27.7813" fill="none">
    <path fill-rule="evenodd" vector-effect="none" d="M-1.06579,1.05469 L-1.06579,-1.05469"/>
   </g>
   <g stroke-width="7" font-weight="400" font-family="MS Shell Dlg 2" transform="matrix(1,0,0,1,1485,1050)" stroke-opacity="1" font-style="normal" stroke="#000000" stroke-linejoin="bevel" stroke-linecap="round" font-size="27.7813" fill="none">
    <path fill-rule="evenodd" vector-effect="none" d="M1.05469,1.06579 L1.05469,-1.06579"/>
   </g>
   <g stroke-width="7" font-weight="400" font-family="MS Shell Dlg 2" transform="matrix(1,0,0,1,1485,1050)" stroke-opacity="1" font-style="normal" stroke="#000000" stroke-linejoin="bevel" stroke-linecap="round" font-size="27.7813" fill="none">
    <path fill-rule="evenodd" vector-effect="none" d="M1.05469,1.06579 L-1.05469,1.06579"/>
   </g>
   <g stroke-width="7" font-weight="400" font-family="MS Shell Dlg 2" transform="matrix(1,0,0,1,1485,1050)" stroke-opacity="1" font-style="normal" stroke="#000000" stroke-linejoin="bevel" stroke-linecap="round" font-size="27.7813" fill="none">
    <path fill-rule="evenodd" vector-effect="none" d="M-1.05469,1.06579 L-1.05469,-1.06579"/>
   </g>
   <g stroke-width="7" font-weight="400" font-family="MS Shell Dlg 2" transform="matrix(1,0,0,1,1485,1050)" stroke-opacity="1" font-style="normal" stroke="#000000" stroke-linejoin="bevel" stroke-linecap="round" font-size="27.7813" fill="none">
    <path fill-rule="evenodd" vector-effect="none" d="M-1.05469,-1.06579 L1.05469,-1.06579"/>
   </g>
  </g>
 </g>
</svg>
